<svg id="e-mail" xmlns="http://www.w3.org/2000/svg" width="8.33" height="6.12" viewBox="0 0 8.33 6.12">
  <g id="Capa_1" data-name="Capa 1">
    <path id="Trazado_2" data-name="Trazado 2" d="M8.19.47a.13.13,0,0,0,0-.06V.35H8L7.9.2H.5L.44.22H.38L.29.3h0a.21.21,0,0,0,0,.06s0,0,0,.06h0V5.6a.32.32,0,0,0,.32.32H7.89A.31.31,0,0,0,8.2,5.6V.51A.1.1,0,0,1,8.19.47ZM7.57,5.29H.84V.84H7.57Z" fill="#101010"/>
    <path id="Trazado_3" data-name="Trazado 3" d="M7.89,6.12H.52A.52.52,0,0,1,0,5.6V.33H0L.25.08A.48.48,0,0,1,.39,0H8.1l.2.12V.27a.35.35,0,0,1,0,.12V5.6a.51.51,0,0,1-.41.52ZM.4.55V5.6a.12.12,0,0,0,.12.12H7.89A.11.11,0,0,0,8,5.6V.45H8L7.87.4H.52L.41.49ZM8.13.47Zm.2-.21ZM7.77,5.49H.63V.63H7.77ZM1,5.09H7.37V1H1Z" fill="#101010"/>
    <path id="Trazado_4" data-name="Trazado 4" d="M7,1.73a.26.26,0,0,1-.08.2l-2.47,2A.35.35,0,0,1,4.21,4,.36.36,0,0,1,4,3.92L1.63,2a.21.21,0,0,1-.11-.08.23.23,0,0,1-.07-.18.27.27,0,0,1,.09-.21h0a.29.29,0,0,1,.2-.07A.28.28,0,0,1,2,1.53L4.21,3.32,6.45,1.53a.28.28,0,0,1,.21-.08.29.29,0,0,1,.2.07A.27.27,0,0,1,7,1.73Z" fill="#101010"/>
    <path id="Trazado_5" data-name="Trazado 5" d="M4.21,4.18a.46.46,0,0,1-.32-.11L1.5,2.15A.44.44,0,0,1,1.36,2a.43.43,0,0,1-.11-.3.51.51,0,0,1,.15-.36l.09-.05a.51.51,0,0,1,.61.06L4.21,3.07l2.12-1.7a.52.52,0,0,1,.66,0,.52.52,0,0,1,.16.37A.48.48,0,0,1,7,2.07l-2.49,2a.45.45,0,0,1-.3.11ZM1.66,1.69h0l.1.11L4.14,3.76a.19.19,0,0,0,.13,0l2.47-2h0a.11.11,0,0,0,0-.07.09.09,0,0,0-.13,0L4.21,3.58,1.83,1.68a.107.107,0,0,0-.15,0Z" fill="#101010"/>
  </g>
</svg>
