<svg xmlns="http://www.w3.org/2000/svg" width="31" height="31" viewBox="0 0 31 31">
  <g id="instagram" transform="translate(-237 -487)">
    <circle id="Elipse_5" data-name="Elipse 5" cx="15.5" cy="15.5" r="15.5" transform="translate(237 487)" fill="#009cdf"/>
    <g id="Grupo_9" data-name="Grupo 9" transform="translate(-315.338 196.854)">
      <path id="Trazado_16" data-name="Trazado 16" d="M571.379,298.563a3.553,3.553,0,0,1,3.542,3.541v7.084a3.553,3.553,0,0,1-3.542,3.541H564.3a3.552,3.552,0,0,1-3.542-3.541V302.1a3.552,3.552,0,0,1,3.542-3.541h7.083m0-1.417H564.3a4.972,4.972,0,0,0-4.958,4.958v7.084a4.972,4.972,0,0,0,4.958,4.958h7.083a4.973,4.973,0,0,0,4.959-4.958V302.1A4.973,4.973,0,0,0,571.379,297.146Z" fill="#fbfbfb"/>
      <path id="Trazado_17" data-name="Trazado 17" d="M572.287,302.1a.908.908,0,1,1,.907-.907A.905.905,0,0,1,572.287,302.1Zm-4.449.709A2.833,2.833,0,1,1,565,305.646a2.836,2.836,0,0,1,2.834-2.833m0-1.417a4.25,4.25,0,1,0,4.25,4.25A4.251,4.251,0,0,0,567.838,301.4Z" fill="#fbfbfb"/>
    </g>
  </g>
</svg>
