<svg id="site" xmlns="http://www.w3.org/2000/svg" width="4.79" height="8" viewBox="0 0 4.79 8">
  <g id="Capa_1" data-name="Capa 1">
    <path id="Trazado_7" data-name="Trazado 7" d="M4.27,3.51A.5.5,0,0,1,3.78,3c0-1.1-.64-2-1.4-2S1,1.91,1,3A.5.5,0,1,1,0,3C0,1.35,1.07,0,2.38,0S4.76,1.35,4.76,3A.5.5,0,0,1,4.27,3.51Z" fill="#101010"/>
    <path id="Trazado_8" data-name="Trazado 8" d="M2.38,8C1.07,8,0,6.65,0,5A.5.5,0,1,1,1,5c0,1.1.64,2,1.39,2s1.4-.92,1.4-2a.5.5,0,0,1,1,0C4.76,6.65,3.7,8,2.38,8Z" fill="#101010"/>
    <path id="Trazado_9" data-name="Trazado 9" d="M2.38,5.75a.49.49,0,0,1-.49-.49V2.74a.49.49,0,0,1,.49-.49.5.5,0,0,1,.5.49V5.26A.5.5,0,0,1,2.38,5.75Z" fill="#101010"/>
  </g>
</svg>
