<svg xmlns="http://www.w3.org/2000/svg" width="31" height="31" viewBox="0 0 31 31">
  <g id="twitter" transform="translate(-199 -515)">
    <circle id="Elipse_4" data-name="Elipse 4" cx="15.5" cy="15.5" r="15.5" transform="translate(199 515)" fill="#009cdf"/>
    <path id="Trazado_18" data-name="Trazado 18" d="M549.338,300.368a7.053,7.053,0,0,1-2,.552,3.5,3.5,0,0,0,1.534-1.931,6.921,6.921,0,0,1-2.215.846,3.487,3.487,0,0,0-6.034,2.385,3.373,3.373,0,0,0,.09.8,9.883,9.883,0,0,1-7.191-3.649,3.494,3.494,0,0,0,1.084,4.661,3.4,3.4,0,0,1-1.585-.435v.043a3.491,3.491,0,0,0,2.8,3.422,3.514,3.514,0,0,1-.918.123,3.318,3.318,0,0,1-.656-.065,3.493,3.493,0,0,0,3.26,2.424,6.989,6.989,0,0,1-4.333,1.495,7.145,7.145,0,0,1-.832-.05,9.749,9.749,0,0,0,5.338,1.578,9.864,9.864,0,0,0,9.932-9.936c0-.151,0-.3-.01-.45A7.127,7.127,0,0,0,549.338,300.368Z" transform="translate(-326.338 225.271)" fill="#fbfbfb"/>
  </g>
</svg>
