<svg xmlns="http://www.w3.org/2000/svg" width="8.4" height="8.5" viewBox="0 0 8.4 8.5">
  <g id="whatsApp" transform="translate(0.003 0)">
    <g id="Capa_1" data-name="Capa 1">
      <path id="Trazado_10" data-name="Trazado 10" d="M4.2,8.2a3.86,3.86,0,0,1-2-.54L.65,8.2,1,6.55A3.91,3.91,0,0,1,.2,4.2a4,4,0,1,1,4,4ZM2.28,7l.12.07a3.29,3.29,0,0,0,1.8.53A3.41,3.41,0,1,0,.8,4.2a3.37,3.37,0,0,0,.72,2.09l.08.11-.17.9Z" fill="#101010"/>
      <path id="Trazado_11" data-name="Trazado 11" d="M.38,8.5.75,6.6A4.2,4.2,0,1,1,4.2,8.4a4.15,4.15,0,0,1-2-.52ZM2.23,7.44h.08A3.8,3.8,0,1,0,.4,4.2a3.72,3.72,0,0,0,.73,2.23l.05.07L.91,7.9Zm2,.37a3.63,3.63,0,0,1-1.91-.56h0L1.17,7.6l.22-1.15h0A3.6,3.6,0,1,1,4.2,7.81Zm-1.9-1,.2.12a3.11,3.11,0,0,0,1.7.49A3.2,3.2,0,1,0,1,4.2a3.14,3.14,0,0,0,.68,2l.14.18L1.69,7Z" fill="#101010"/>
      <path id="Trazado_12" data-name="Trazado 12" d="M2.18,2.66s.24-.41.43-.43.43,0,.5.1.36.85.36.85a.27.27,0,0,1,0,.25,2.69,2.69,0,0,1-.26.3.22.22,0,0,0,0,.25,4.14,4.14,0,0,0,.57.69,2.92,2.92,0,0,0,.91.54.19.19,0,0,0,.14,0c.06-.06.35-.43.35-.43a.22.22,0,0,1,.26,0l.84.42s.08,0,.08.15a1,1,0,0,1-.15.51,1.19,1.19,0,0,1-.83.41,3.73,3.73,0,0,1-2.05-.91A4.08,4.08,0,0,1,2.14,3.62C2,3.11,2,2.88,2.18,2.66Z" fill="#101010"/>
    </g>
  </g>
</svg>
